<svg width="320" height="320" viewBox="0 0 320 320" fill="none" xmlns="http://www.w3.org/2000/svg">
<g clip-path="url(#clip0_22_449)">
<path d="M80.3484 32.6001L80.3486 32.5997L80.3488 32.5994L80.3489 32.5992L80.3729 32.55L80.3955 32.4991C80.8935 31.3752 82.0047 29.9714 83.2977 28.6324C84.4645 27.4241 85.5763 26.4742 86.0063 26.1228C86.035 26.103 86.0725 26.0772 86.1184 26.046C86.25 25.9566 86.4498 25.823 86.7078 25.6572C87.225 25.3248 87.9686 24.8676 88.8584 24.3789C90.6779 23.3794 92.9397 22.3423 95.0563 21.8835L95.1157 21.8706L95.1751 21.8578L95.2348 21.8448L95.2946 21.8319L95.3545 21.8189L95.4146 21.8059L95.4748 21.7928L95.5352 21.7797L95.5957 21.7666L95.6564 21.7534L95.7172 21.7403L95.7781 21.7271L95.8392 21.7138L95.9004 21.7005L95.9618 21.6872L96.0233 21.6739L96.0849 21.6606L96.1467 21.6472L96.2086 21.6337L96.2706 21.6203L96.3328 21.6068L96.3951 21.5933L96.4575 21.5798L96.52 21.5662L96.5827 21.5526L96.6455 21.539L96.7084 21.5254L96.7715 21.5117L96.8347 21.498L96.898 21.4843L96.9614 21.4706L97.0249 21.4568L97.0886 21.443L97.1523 21.4292L97.2162 21.4153L97.2802 21.4014L97.3444 21.3876L97.4086 21.3736L97.4729 21.3597L97.5374 21.3457L97.602 21.3317L97.6666 21.3177L97.7314 21.3037L97.7963 21.2896L97.8613 21.2755L97.9264 21.2614L97.9916 21.2472L98.0569 21.2331L98.1223 21.2189L98.1878 21.2047L98.2535 21.1905L98.3192 21.1762L98.385 21.162L98.4509 21.1477L98.5169 21.1334L98.583 21.1191L98.6492 21.1047L98.7154 21.0903L98.7818 21.076L98.8483 21.0616L98.9148 21.0471L98.9815 21.0327L99.0482 21.0182L99.115 21.0037L99.1819 20.9892L99.2489 20.9747L99.316 20.9602L99.3831 20.9456L99.4503 20.9311L99.5177 20.9165L99.585 20.9019L99.6525 20.8872L99.72 20.8726L99.7877 20.8579L99.8554 20.8433L99.9231 20.8286L99.991 20.8139L100.059 20.7991L100.127 20.7844L100.195 20.7697L100.263 20.7549L100.331 20.7401L100.399 20.7253L100.468 20.7105L100.536 20.6957L100.605 20.6808L100.673 20.666L100.742 20.6511L100.81 20.6363L100.879 20.6214L100.948 20.6065L101.017 20.5915L101.085 20.5766L101.154 20.5617L101.223 20.5467L101.292 20.5318L101.361 20.5168L101.431 20.5018L101.5 20.4868L101.569 20.4718L101.638 20.4568L101.708 20.4418L101.777 20.4267L101.846 20.4117L101.916 20.3966L101.985 20.3816L102.055 20.3665L102.124 20.3514L102.194 20.3363L102.264 20.3212L102.333 20.3061L102.403 20.291L102.473 20.2759L102.543 20.2608L102.612 20.2456L102.682 20.2305L102.752 20.2154L102.822 20.2002L102.892 20.185L102.962 20.1699L103.032 20.1547L103.102 20.1395L103.172 20.1243L103.242 20.1091L103.312 20.0939L103.382 20.0787L103.452 20.0635L103.523 20.0483L103.593 20.0331L103.663 20.0179L103.733 20.0027L103.803 19.9875L103.874 19.9722L103.944 19.957L104.014 19.9418L104.084 19.9266L104.155 19.9113L104.225 19.8961L104.295 19.8808L104.366 19.8656L104.436 19.8504L104.506 19.8351L104.577 19.8199L104.647 19.8046L104.717 19.7894L104.787 19.7742L104.858 19.7589L104.928 19.7437L104.998 19.7284L105.069 19.7132L105.139 19.6979L105.209 19.6827L105.28 19.6675L105.35 19.6522L105.42 19.637L105.491 19.6218L105.561 19.6065L105.631 19.5913L105.701 19.5761L105.771 19.5609L105.842 19.5456L105.912 19.5304L105.982 19.5152L106.052 19.5L106.122 19.4848L106.192 19.4696L106.263 19.4544L106.333 19.4392L106.403 19.424L106.473 19.4089L106.543 19.3937L106.613 19.3785L106.683 19.3634L106.752 19.3482L106.822 19.3331L106.892 19.3179L106.962 19.3028L107.032 19.2877L107.102 19.2726L107.171 19.2574L107.241 19.2423L107.311 19.2272L107.38 19.2122L107.45 19.1971L107.519 19.182L107.589 19.1669L107.658 19.1519L107.728 19.1368L107.797 19.1218L107.866 19.1068L107.936 19.0918L108.005 19.0768L108.074 19.0618L108.143 19.0468L108.212 19.0318L108.281 19.0169L108.35 19.0019L108.419 18.987L108.488 18.9721L108.557 18.9572L108.625 18.9423L108.694 18.9274L108.763 18.9125L108.831 18.8976L108.9 18.8828L108.968 18.868L109.036 18.8531L109.105 18.8383L109.173 18.8235L109.241 18.8088L109.309 18.794L109.377 18.7793L109.445 18.7645L109.513 18.7498L109.581 18.7351L109.649 18.7204L109.716 18.7057L109.784 18.6911L109.852 18.6765L109.919 18.6618L109.986 18.6472L110.054 18.6326L110.121 18.6181L110.188 18.6035L110.255 18.589L110.322 18.5745L110.389 18.56L110.456 18.5455L110.522 18.531L110.589 18.5166L110.656 18.5022L110.722 18.4878L110.788 18.4734L110.855 18.459L110.921 18.4447L110.987 18.4304L111.053 18.4161L111.119 18.4018L111.185 18.3875L111.25 18.3733L111.316 18.3591L111.381 18.3449L111.447 18.3307L111.512 18.3165L111.577 18.3024L111.642 18.2883L111.707 18.2742L111.772 18.2602L111.837 18.2461L111.901 18.2321L111.966 18.2181L112.03 18.2041L112.095 18.1902L112.159 18.1763L112.223 18.1624L112.287 18.1485L112.351 18.1347L112.415 18.1209L112.478 18.1071L112.542 18.0933L112.605 18.0796L112.668 18.0658L112.732 18.0522L112.795 18.0385L112.858 18.0249L112.92 18.0113L112.983 17.9977L113.045 17.9841L113.108 17.9706L113.17 17.9571L113.232 17.9436L113.294 17.9302L113.356 17.9168L113.418 17.9034L113.479 17.89L113.541 17.8767L113.602 17.8634L113.663 17.8502L113.725 17.8369L113.785 17.8237L113.846 17.8106L113.907 17.7974L113.967 17.7843L114.028 17.7712L114.088 17.7582L114.148 17.7452L114.208 17.7322L114.268 17.7192L114.327 17.7063L114.387 17.6934L114.446 17.6806L114.505 17.6677L114.564 17.6549L114.623 17.6422L114.682 17.6295L114.74 17.6168L114.799 17.6041L114.857 17.5915L114.915 17.5789L114.973 17.5664L115.03 17.5539L115.088 17.5414L115.145 17.5289L115.203 17.5165L115.26 17.5041L115.317 17.4918L115.373 17.4795L115.43 17.4673L115.486 17.455L115.543 17.4428L115.599 17.4307L115.655 17.4186L115.71 17.4065L115.766 17.3945L115.821 17.3825L115.876 17.3705L115.931 17.3586L115.986 17.3467L116.041 17.3348L116.095 17.323L116.15 17.3113L116.204 17.2995L116.258 17.2879L116.311 17.2762L116.365 17.2646L116.418 17.253L116.471 17.2415L116.524 17.23L116.577 17.2186L116.63 17.2072L116.682 17.1958L116.734 17.1845L116.786 17.1733L116.838 17.162L116.89 17.1508L116.941 17.1397L116.992 17.1286L117.043 17.1175L117.094 17.1065L117.145 17.0955L117.195 17.0846L117.245 17.0737L117.295 17.0629L117.345 17.0521L117.395 17.0414L117.444 17.0307L117.493 17.02L117.542 17.0094L117.591 16.9988L117.64 16.9883L117.688 16.9778L117.736 16.9674L117.784 16.957L117.831 16.9467L117.879 16.9364L117.926 16.9262L117.973 16.916L118.02 16.9059L118.066 16.8958L118.113 16.8857L118.159 16.8757L118.205 16.8658L118.25 16.8559L118.296 16.846L118.341 16.8362L118.386 16.8265L118.431 16.8168L118.475 16.8071L118.52 16.7975L118.564 16.788L118.607 16.7785L118.651 16.769L118.694 16.7597L118.737 16.7503L118.78 16.741L118.823 16.7318L118.865 16.7226L118.907 16.7135L118.949 16.7044L118.991 16.6954L119.032 16.6864L119.074 16.6775L119.114 16.6686L119.155 16.6598L119.196 16.651L119.236 16.6423L119.276 16.6337L119.315 16.6251L119.355 16.6165L119.394 16.608L119.433 16.5996L119.471 16.5912L119.51 16.5829L119.548 16.5747L119.586 16.5665L119.623 16.5583L119.661 16.5502L119.698 16.5422L119.734 16.5342L119.771 16.5263L119.807 16.5184L119.843 16.5106L119.879 16.5029L119.914 16.4952L119.95 16.4876L119.985 16.48L120.019 16.4725L120.054 16.465L120.088 16.4576L120.122 16.4503L120.155 16.443L120.188 16.4358L120.221 16.4287L120.254 16.4216L120.287 16.4145L120.319 16.4076L120.351 16.4007L120.382 16.3938L120.413 16.387L120.444 16.3803L120.475 16.3737L120.506 16.3671L120.536 16.3605L120.566 16.3541L120.595 16.3476L120.624 16.3413L120.653 16.335L120.682 16.3288L120.71 16.3226L120.739 16.3166L120.766 16.3105L120.794 16.3046L120.821 16.2987L120.848 16.2929L120.874 16.2871L120.901 16.2814L120.927 16.2758L120.952 16.2702L120.978 16.2647L121.003 16.2593L121.028 16.2539L121.052 16.2486L121.076 16.2434L121.1 16.2382L121.124 16.2331L121.147 16.2281L121.17 16.2231L121.192 16.2182L121.214 16.2134L121.236 16.2086L121.258 16.204L121.279 16.1993L121.3 16.1948L121.321 16.1903L121.341 16.1859L121.361 16.1816L121.381 16.1773L121.4 16.1731L121.419 16.169L121.438 16.1649L121.456 16.161L121.474 16.157L121.492 16.1532L121.51 16.1494L121.527 16.1457L121.543 16.1421L121.56 16.1386L121.576 16.1351L121.591 16.1317L121.607 16.1284L121.622 16.1251L121.636 16.1219L121.651 16.1188L121.665 16.1158L121.678 16.1128L121.692 16.1099L121.705 16.1071L121.717 16.1044L121.73 16.1017L121.741 16.0992L121.753 16.0967L121.764 16.0942L121.775 16.0919L121.786 16.0896L121.796 16.0874L121.806 16.0853L121.815 16.0832L121.824 16.0812L121.833 16.0794L121.841 16.0775L121.849 16.0758L121.857 16.0741L121.864 16.0726L121.871 16.0711L121.878 16.0696L121.884 16.0683L121.89 16.067L121.895 16.0659L121.9 16.0648L121.905 16.0637L121.909 16.0628L121.913 16.0619L121.917 16.0612L121.92 16.0605L121.923 16.0598L121.925 16.0593L121.927 16.0589L121.929 16.0585L121.93 16.0582L121.931 16.058L121.932 16.0579C121.932 16.0578 121.932 16.0578 121.397 13.5884L121.932 16.0578L147.342 10.5499L147.454 10.5256L147.564 10.4928C150.828 9.51885 155.635 10.0171 159.732 11.4904C163.703 12.9179 166.321 14.5829 169.184 17.1597C172.397 20.955 173.777 23.07 175.098 27.657L187.954 86.9679L196.776 127.666L197.899 132.846L198.117 133.854L198.909 134.514L249.034 176.331L261.566 186.785L261.622 186.832L261.676 186.873L261.676 186.873L261.678 186.874L261.68 186.876L261.686 186.88C261.697 186.889 261.717 186.904 261.745 186.926C261.801 186.971 261.891 187.042 262.012 187.14C262.252 187.337 262.614 187.641 263.07 188.047C263.982 188.862 265.266 190.085 266.711 191.687C269.609 194.9 273.103 199.581 275.57 205.492C278.028 211.382 279.468 218.489 278.293 226.642C277.117 234.796 273.299 244.19 264.941 254.607C256.617 264.982 248.151 270.426 240.247 272.916C232.329 275.411 224.742 275.016 218.074 273.333C211.387 271.646 205.675 268.675 201.616 266.1C199.593 264.816 197.998 263.643 196.918 262.799C196.379 262.377 195.969 262.038 195.7 261.81C195.565 261.696 195.466 261.61 195.403 261.555C195.388 261.541 195.374 261.529 195.363 261.519L195.337 261.496L195.327 261.486L195.325 261.485L195.324 261.484L195.278 261.442L195.227 261.4L187.193 254.716L171.125 241.349L171.098 241.326L171.07 241.304L169.207 243.655C171.07 241.304 171.07 241.304 171.07 241.304L171.069 241.303L171.067 241.302L171.058 241.294L171.022 241.266L170.88 241.153L170.324 240.712C169.837 240.325 169.122 239.758 168.214 239.035C166.397 237.59 163.803 235.523 160.698 233.04C154.488 228.074 146.234 221.442 138.055 214.781C134.273 211.701 130.775 208.997 127.6 206.564C127.036 206.131 126.483 205.709 125.941 205.294C123.42 203.366 121.139 201.621 119.076 199.969C114.018 195.918 110.646 192.708 108.699 189.368C106.685 185.91 105.219 181.392 103.663 174.816C102.753 170.971 101.845 166.576 100.777 161.412C100.011 157.711 99.1643 153.614 98.1764 149.041C93.7323 128.469 88.6064 103.774 84.5905 84.2168C82.5828 74.4393 80.8529 65.9481 79.6251 59.9014C79.0111 56.8781 78.5227 54.466 78.1878 52.8098C78.0203 51.9817 77.8912 51.3426 77.804 50.9106L77.7051 50.4202L77.6904 50.3475C77.6846 50.3038 77.6766 50.2434 77.6669 50.1676C77.6439 49.9883 77.6113 49.7238 77.574 49.3926C77.499 48.7287 77.406 47.8045 77.3334 46.7663C77.1827 44.6103 77.1434 42.2512 77.4168 40.6738C77.6733 39.1941 78.366 37.2238 79.0711 35.4931C79.412 34.6563 79.735 33.9253 79.9723 33.4045C80.0907 33.1447 80.1871 32.9389 80.2528 32.8001C80.2856 32.7308 80.3107 32.6783 80.327 32.6444L80.3448 32.6077L80.3484 32.6002L80.3484 32.6001Z" fill="#FF901F" stroke="black" stroke-width="6"/>
<path d="M78.1194 66.4839L181.714 44.0285" stroke="black" stroke-width="6"/>
<path d="M192.319 262.893L258.736 182.863" stroke="black" stroke-width="6"/>
<path d="M100.589 146.541C124.338 141.393 147.763 156.472 152.911 180.221C155.951 194.246 151.938 208.157 143.25 218.259" stroke="black" stroke-width="6"/>
<path d="M140.471 76.1143L116.592 109.078L105.907 115.343L108.423 103.14L132.292 70.1895L140.471 76.1143Z" stroke="black" stroke-width="6"/>
<path d="M107.643 101.217L118.712 109.77" stroke="black" stroke-width="6"/>
<circle cx="160.639" cy="123.639" r="21" transform="rotate(9.52115 160.639 123.639)" stroke="black" stroke-width="6"/>
<path d="M155.136 103.248L160.573 124.034L181.481 127.54" stroke="black" stroke-width="6"/>
<rect x="184.025" y="184.837" width="26" height="42" rx="9" transform="rotate(19.7443 184.025 184.837)" stroke="black" stroke-width="6"/>
<circle cx="185.45" cy="219.348" r="1.5" transform="rotate(19.7443 185.45 219.348)" stroke="black" stroke-width="3"/>
<path d="M54.4003 38.9969L54.4005 38.9966L54.4007 38.9963L54.4009 38.9962L54.4348 38.9532L54.4676 38.9082C55.1927 37.9155 56.5762 36.7792 58.1238 35.7448C59.5203 34.8114 60.8082 34.1189 61.3029 33.8667C61.3352 33.8534 61.3773 33.8361 61.4287 33.8154C61.5763 33.7559 61.7999 33.6677 62.0872 33.5604C62.6632 33.3452 63.4868 33.0561 64.4599 32.7671C66.45 32.1762 68.8803 31.6423 71.046 31.6427L71.1068 31.6428L71.1676 31.6428L71.2287 31.6428L71.2898 31.6428L71.3512 31.6428L71.4126 31.6428L71.4743 31.6428L71.5361 31.6428L71.598 31.6429L71.66 31.6429L71.7223 31.6429L71.7846 31.6429L71.8471 31.6429L71.9098 31.6429L71.9725 31.6429L72.0355 31.643L72.0985 31.643L72.1617 31.643L72.2251 31.643L72.2885 31.643L72.3521 31.643L72.4159 31.643L72.4798 31.643L72.5438 31.6431L72.6079 31.6431L72.6721 31.6431L72.7365 31.6431L72.801 31.6431L72.8657 31.6431L72.9305 31.6431L72.9953 31.6431L73.0604 31.6432L73.1255 31.6432L73.1907 31.6432L73.2561 31.6432L73.3216 31.6432L73.3872 31.6432L73.4529 31.6432L73.5188 31.6433L73.5847 31.6433L73.6508 31.6433L73.717 31.6433L73.7833 31.6433L73.8497 31.6433L73.9162 31.6433L73.9828 31.6433L74.0495 31.6434L74.1163 31.6434L74.1833 31.6434L74.2503 31.6434L74.3174 31.6434L74.3847 31.6434L74.452 31.6434L74.5194 31.6435L74.587 31.6435L74.6546 31.6435L74.7223 31.6435L74.7901 31.6435L74.8581 31.6435L74.9261 31.6435L74.9942 31.6436L75.0624 31.6436L75.1306 31.6436L75.199 31.6436L75.2675 31.6436L75.336 31.6436L75.4046 31.6436L75.4733 31.6437L75.5421 31.6437L75.611 31.6437L75.6799 31.6437L75.749 31.6437L75.8181 31.6437L75.8873 31.6437L75.9565 31.6437L76.0259 31.6438L76.0953 31.6438L76.1648 31.6438L76.2343 31.6438L76.304 31.6438L76.3737 31.6438L76.4435 31.6438L76.5133 31.6439L76.5832 31.6439L76.6532 31.6439L76.7232 31.6439L76.7933 31.6439L76.8635 31.6439L76.9337 31.6439L77.004 31.644L77.0743 31.644L77.1447 31.644L77.2152 31.644L77.2857 31.644L77.3563 31.644L77.4269 31.644L77.4976 31.6441L77.5683 31.6441L77.6391 31.6441L77.7099 31.6441L77.7808 31.6441L77.8517 31.6441L77.9227 31.6441L77.9937 31.6442L78.0648 31.6442L78.1359 31.6442L78.207 31.6442L78.2782 31.6442L78.3494 31.6442L78.4207 31.6443L78.492 31.6443L78.5633 31.6443L78.6347 31.6443L78.7061 31.6443L78.7776 31.6443L78.849 31.6443L78.9206 31.6444L78.9921 31.6444L79.0637 31.6444L79.1353 31.6444L79.2069 31.6444L79.2785 31.6444L79.3502 31.6444L79.4219 31.6445L79.4936 31.6445L79.5654 31.6445L79.6371 31.6445L79.7089 31.6445L79.7807 31.6445L79.8526 31.6445L79.9244 31.6446L79.9962 31.6446L80.0681 31.6446L80.14 31.6446L80.2119 31.6446L80.2838 31.6446L80.3557 31.6446L80.4276 31.6447L80.4996 31.6447L80.5715 31.6447L80.6434 31.6447L80.7154 31.6447L80.7873 31.6447L80.8593 31.6447L80.9313 31.6448L81.0032 31.6448L81.0752 31.6448L81.1471 31.6448L81.2191 31.6448L81.291 31.6448L81.363 31.6449L81.4349 31.6449L81.5068 31.6449L81.5788 31.6449L81.6507 31.6449L81.7226 31.6449L81.7945 31.6449L81.8663 31.645L81.9382 31.645L82.01 31.645L82.0819 31.645L82.1537 31.645L82.2255 31.645L82.2973 31.645L82.369 31.6451L82.4408 31.6451L82.5125 31.6451L82.5842 31.6451L82.6559 31.6451L82.7275 31.6451L82.7991 31.6451L82.8707 31.6452L82.9423 31.6452L83.0138 31.6452L83.0853 31.6452L83.1568 31.6452L83.2282 31.6452L83.2996 31.6452L83.371 31.6453L83.4423 31.6453L83.5136 31.6453L83.5849 31.6453L83.6561 31.6453L83.7273 31.6453L83.7984 31.6453L83.8695 31.6454L83.9406 31.6454L84.0116 31.6454L84.0825 31.6454L84.1535 31.6454L84.2243 31.6454L84.2951 31.6454L84.3659 31.6455L84.4366 31.6455L84.5073 31.6455L84.5779 31.6455L84.6485 31.6455L84.719 31.6455L84.7894 31.6455L84.8598 31.6456L84.9301 31.6456L85.0004 31.6456L85.0706 31.6456L85.1408 31.6456L85.2109 31.6456L85.2809 31.6456L85.3508 31.6457L85.4207 31.6457L85.4905 31.6457L85.5603 31.6457L85.63 31.6457L85.6996 31.6457L85.7692 31.6457L85.8386 31.6458L85.908 31.6458L85.9774 31.6458L86.0466 31.6458L86.1158 31.6458L86.1849 31.6458L86.2539 31.6458L86.3228 31.6459L86.3917 31.6459L86.4605 31.6459L86.5291 31.6459L86.5977 31.6459L86.6663 31.6459L86.7347 31.6459L86.8031 31.646L86.8713 31.646L86.9395 31.646L87.0076 31.646L87.0755 31.646L87.1434 31.646L87.2112 31.646L87.2789 31.6461L87.3466 31.6461L87.4141 31.6461L87.4815 31.6461L87.5488 31.6461L87.616 31.6461L87.6831 31.6461L87.7501 31.6462L87.817 31.6462L87.8838 31.6462L87.9505 31.6462L88.0171 31.6462L88.0836 31.6462L88.15 31.6462L88.2163 31.6462L88.2824 31.6463L88.3485 31.6463L88.4144 31.6463L88.4802 31.6463L88.5459 31.6463L88.6115 31.6463L88.6769 31.6463L88.7423 31.6464L88.8075 31.6464L88.8726 31.6464L88.9376 31.6464L89.0025 31.6464L89.0672 31.6464L89.1318 31.6464L89.1963 31.6464L89.2607 31.6465L89.3249 31.6465L89.389 31.6465L89.453 31.6465L89.5168 31.6465L89.5805 31.6465L89.6441 31.6465L89.7076 31.6466L89.7709 31.6466L89.834 31.6466L89.8971 31.6466L89.96 31.6466L90.0227 31.6466L90.0853 31.6466L90.1478 31.6466L90.2101 31.6467L90.2723 31.6467L90.3344 31.6467L90.3962 31.6467L90.458 31.6467L90.5196 31.6467L90.581 31.6467L90.6423 31.6467L90.7035 31.6468L90.7645 31.6468L90.8253 31.6468L90.886 31.6468L90.9465 31.6468L91.0069 31.6468L91.0671 31.6468L91.1272 31.6468L91.187 31.6469L91.2468 31.6469L91.3063 31.6469L91.3658 31.6469L91.425 31.6469L91.4841 31.6469L91.543 31.6469L91.6017 31.6469L91.6603 31.6469L91.7187 31.647L91.7769 31.647L91.835 31.647L91.8929 31.647L91.9506 31.647L92.0081 31.647L92.0655 31.647L92.1227 31.647L92.1797 31.6471L92.2365 31.6471L92.2932 31.6471L92.3496 31.6471L92.4059 31.6471L92.462 31.6471L92.5179 31.6471L92.5736 31.6471L92.6292 31.6471L92.6845 31.6472L92.7397 31.6472L92.7947 31.6472L92.8494 31.6472L92.904 31.6472L92.9584 31.6472L93.0126 31.6472L93.0666 31.6472L93.1204 31.6472L93.1741 31.6473L93.2275 31.6473L93.2807 31.6473L93.3337 31.6473L93.3865 31.6473L93.4391 31.6473L93.4915 31.6473L93.5437 31.6473L93.5957 31.6473L93.6475 31.6474L93.6991 31.6474L93.7504 31.6474L93.8016 31.6474L93.8525 31.6474L93.9033 31.6474L93.9538 31.6474L94.0041 31.6474L94.0542 31.6474L94.104 31.6474L94.1537 31.6475L94.2031 31.6475L94.2523 31.6475L94.3013 31.6475L94.3501 31.6475L94.3987 31.6475L94.447 31.6475L94.4951 31.6475L94.5429 31.6475L94.5906 31.6475L94.638 31.6476L94.6852 31.6476L94.7321 31.6476L94.7789 31.6476L94.8253 31.6476L94.8716 31.6476L94.9176 31.6476L94.9634 31.6476L95.0089 31.6476L95.0542 31.6476L95.0993 31.6476L95.1441 31.6477L95.1887 31.6477L95.2331 31.6477L95.2772 31.6477L95.321 31.6477L95.3646 31.6477L95.408 31.6477L95.4511 31.6477L95.494 31.6477L95.5366 31.6477L95.5789 31.6477L95.6211 31.6478L95.6629 31.6478L95.7045 31.6478L95.7459 31.6478L95.787 31.6478L95.8278 31.6478L95.8684 31.6478L95.9087 31.6478L95.9487 31.6478L95.9885 31.6478L96.028 31.6478L96.0673 31.6478L96.1063 31.6479L96.145 31.6479L96.1835 31.6479L96.2217 31.6479L96.2596 31.6479L96.2973 31.6479L96.3347 31.6479L96.3718 31.6479L96.4086 31.6479L96.4452 31.6479L96.4815 31.6479L96.5175 31.6479L96.5532 31.6479L96.5887 31.648L96.6239 31.648L96.6588 31.648L96.6934 31.648L96.7277 31.648L96.7617 31.648L96.7955 31.648L96.829 31.648L96.8622 31.648L96.8951 31.648L96.9277 31.648L96.96 31.648L96.992 31.648L97.0237 31.648L97.0552 31.648L97.0863 31.6481L97.1172 31.6481L97.1477 31.6481L97.178 31.6481L97.2079 31.6481L97.2376 31.6481L97.2669 31.6481L97.2959 31.6481L97.3247 31.6481L97.3531 31.6481L97.3813 31.6481L97.4091 31.6481L97.4366 31.6481L97.4638 31.6481L97.4907 31.6481L97.5173 31.6481L97.5436 31.6481L97.5695 31.6482L97.5952 31.6482L97.6205 31.6482L97.6455 31.6482L97.6702 31.6482L97.6946 31.6482L97.7186 31.6482L97.7424 31.6482L97.7658 31.6482L97.7889 31.6482L97.8117 31.6482L97.8341 31.6482L97.8562 31.6482L97.878 31.6482L97.8995 31.6482L97.9206 31.6482L97.9414 31.6482L97.9619 31.6482L97.982 31.6482L98.0018 31.6482L98.0213 31.6482L98.0404 31.6482L98.0592 31.6483L98.0777 31.6483L98.0958 31.6483L98.1136 31.6483L98.131 31.6483L98.1481 31.6483L98.1649 31.6483L98.1813 31.6483L98.1973 31.6483L98.213 31.6483L98.2284 31.6483L98.2434 31.6483L98.2581 31.6483L98.2724 31.6483L98.2864 31.6483L98.3 31.6483L98.3133 31.6483L98.3262 31.6483L98.3387 31.6483L98.3509 31.6483L98.3628 31.6483L98.3742 31.6483L98.3853 31.6483L98.3961 31.6483L98.4065 31.6483L98.4165 31.6483L98.4262 31.6483L98.4355 31.6483L98.4444 31.6483L98.453 31.6483L98.4612 31.6483L98.469 31.6483L98.4764 31.6483L98.4835 31.6483L98.4902 31.6483L98.4965 31.6483L98.5025 31.6483L98.5081 31.6483L98.5133 31.6483L98.5181 31.6483L98.5225 31.6483L98.5266 31.6483L98.5303 31.6483L98.5336 31.6483L98.5365 31.6483L98.539 31.6483L98.5412 31.6483L98.5429 31.6483L98.5443 31.6484L98.5453 31.6484L98.5459 31.6484C98.546 31.6484 98.5461 31.6484 98.5466 29.1215L98.5461 31.6484L124.546 31.6537L124.661 31.6537L124.775 31.6449C128.172 31.3853 132.763 32.8914 136.455 35.2C140.033 37.437 142.238 39.6192 144.49 42.7447C146.824 47.1348 147.725 49.4944 148.043 54.2571L148.031 114.945L148.022 156.589L148.021 161.889L148.021 162.92L148.655 163.733L188.773 215.228L198.803 228.102L198.848 228.159L198.892 228.211L198.892 228.211L198.893 228.212L198.895 228.214L198.9 228.22C198.909 228.231 198.925 228.25 198.948 228.277C198.994 228.333 199.067 228.422 199.163 228.543C199.357 228.787 199.646 229.16 200.005 229.654C200.724 230.643 201.719 232.111 202.792 233.982C204.943 237.737 207.365 243.053 208.522 249.353C209.676 255.63 209.575 262.881 206.698 270.599C203.821 278.318 198.097 286.689 187.72 295.097C177.385 303.471 167.958 306.996 159.705 307.754C151.439 308.513 144.108 306.518 137.948 303.459C131.771 300.392 126.819 296.278 123.398 292.901C121.693 291.218 120.384 289.733 119.507 288.679C119.07 288.152 118.741 287.734 118.527 287.454C118.419 287.314 118.34 287.209 118.291 287.142C118.278 287.125 118.268 287.11 118.259 287.098L118.238 287.07L118.23 287.059L118.229 287.057L118.228 287.056L118.192 287.005L118.152 286.953L111.717 278.718L98.8493 262.247L98.8273 262.219L98.8046 262.192L96.4852 264.094C98.8046 262.192 98.8046 262.192 98.8045 262.191L98.8041 262.191L98.8023 262.189L98.795 262.18L98.7659 262.144L98.6507 262.004L98.2009 261.455C97.807 260.974 97.2292 260.268 96.4946 259.369C95.0255 257.571 92.9292 255.002 90.4213 251.917C85.4051 245.746 78.7448 237.516 72.1644 229.271C69.1218 225.459 66.2763 222.075 63.6892 219.024C63.2297 218.482 62.7792 217.952 62.3378 217.432C60.2832 215.013 58.424 212.824 56.7583 210.772C52.6737 205.74 50.0589 201.888 48.8652 198.211C47.6295 194.405 47.1554 189.679 47.0291 182.923C46.9551 178.972 46.9989 174.485 47.0504 169.212C47.0873 165.432 47.1281 161.249 47.1324 156.57C47.1515 135.524 47.3785 110.304 47.6009 90.3394C47.7121 80.3585 47.8221 71.6936 47.9043 65.524C47.9454 62.4393 47.9795 59.9784 48.0034 58.2889C48.0153 57.4442 48.0247 56.7922 48.0311 56.3516L48.0383 55.8514L48.0394 55.7772C48.043 55.7332 48.048 55.6725 48.0546 55.5964C48.0702 55.4163 48.0944 55.1509 48.1281 54.8193C48.1957 54.1546 48.3007 53.2317 48.4499 52.2017C48.7598 50.0628 49.2216 47.749 49.8234 46.2654C50.3878 44.8738 51.4825 43.0952 52.5385 41.5533C53.049 40.8079 53.5197 40.1619 53.8621 39.7033C54.0329 39.4746 54.1707 39.2938 54.2643 39.1721C54.3111 39.1113 54.3468 39.0654 54.3699 39.0357L54.3951 39.0036L54.4002 38.997L54.4003 38.9969Z" fill="#FF901F" stroke="black" stroke-width="6"/>
<path d="M45.0371 71.6375L151.037 71.659" stroke="black" stroke-width="6"/>
<path d="M114.993 287.795L196.869 223.668" stroke="black" stroke-width="6"/>
<path d="M50.0203 154.638C74.3208 154.643 94.0162 174.347 94.0113 198.647C94.0084 212.998 87.136 225.742 76.5041 233.772" stroke="black" stroke-width="6"/>
<path d="M103.929 94.2702L73.6031 121.421L61.8325 125.278L66.8783 113.886L97.1923 86.7458L103.929 94.2702Z" stroke="black" stroke-width="6"/>
<path d="M66.5245 111.842L75.5276 122.547" stroke="black" stroke-width="6"/>
<circle cx="113.561" cy="144.991" r="21" transform="rotate(21.7632 113.561 144.991)" stroke="black" stroke-width="6"/>
<path d="M112.507 123.897L113.413 145.363L133.102 153.223" stroke="black" stroke-width="6"/>
<rect x="123.439" y="209.756" width="26" height="42" rx="9" transform="rotate(31.9863 123.439 209.756)" stroke="black" stroke-width="6"/>
<circle cx="117.514" cy="243.784" r="1.5" transform="rotate(31.9863 117.514 243.784)" stroke="black" stroke-width="3"/>
</g>
<defs>
<clipPath id="clip0_22_449">
<rect width="320" height="320" fill="white"/>
</clipPath>
</defs>
</svg>
