<?xml version="1.0" standalone="no"?>
<!DOCTYPE svg PUBLIC "-//W3C//DTD SVG 20010904//EN"
 "http://www.w3.org/TR/2001/REC-SVG-20010904/DTD/svg10.dtd">
<svg version="1.0" xmlns="http://www.w3.org/2000/svg"
 width="320.000000pt" height="320.000000pt" viewBox="0 0 320.000000 320.000000"
 preserveAspectRatio="xMidYMid meet">
<metadata>
Created by potrace 1.14, written by Peter Selinger 2001-2017
</metadata>
<g transform="translate(0.000000,320.000000) scale(0.100000,-0.100000)"
fill="#000000" stroke="none">
<path d="M1195 2959 c-44 -10 -91 -20 -105 -23 -14 -2 -77 -16 -140 -30 -63
-15 -126 -29 -140 -31 -64 -12 -77 -16 -127 -40 -96 -47 -146 -140 -138 -253
3 -32 27 -166 54 -298 28 -132 52 -251 55 -265 15 -77 28 -139 56 -269 17 -80
44 -206 60 -280 54 -256 71 -311 117 -366 20 -24 104 -94 203 -169 36 -27 67
-52 70 -55 3 -4 86 -71 185 -151 98 -79 207 -166 240 -194 34 -27 84 -68 111
-90 27 -22 51 -43 54 -47 14 -18 130 -80 187 -99 71 -23 174 -31 238 -17 181
39 381 253 429 459 13 53 14 142 3 189 -26 111 -97 215 -212 310 -17 14 -68
56 -115 95 -47 38 -87 72 -90 75 -3 3 -43 37 -90 75 -47 38 -87 72 -90 75 -3
3 -30 25 -60 50 -30 25 -67 55 -81 68 -14 12 -33 28 -42 35 -10 6 -23 41 -31
77 -113 523 -219 1002 -227 1027 -16 50 -90 118 -154 142 -66 25 -112 25 -220
0z m223 -68 c41 -21 87 -68 96 -98 19 -64 35 -158 29 -164 -5 -4 -44 -15 -87
-24 -44 -9 -222 -47 -395 -85 -174 -38 -327 -71 -341 -74 -14 -2 -39 -8 -57
-11 -31 -7 -31 -7 -42 46 -27 130 -19 199 31 261 31 38 136 71 350 112 13 2
53 11 89 20 74 17 109 24 154 32 17 3 32 8 35 11 10 10 100 -7 138 -26z m162
-393 c8 -35 14 -65 15 -68 1 -3 5 -23 9 -45 5 -22 14 -65 21 -95 8 -30 16 -68
18 -85 3 -16 9 -48 15 -70 6 -22 13 -51 15 -65 11 -60 77 -358 82 -371 4 -8
110 -99 237 -204 126 -104 239 -198 251 -209 12 -10 37 -31 56 -46 33 -28 34
-30 18 -53 -8 -13 -22 -30 -29 -38 -7 -8 -42 -50 -78 -94 -36 -44 -69 -85 -75
-91 -12 -14 -36 -42 -95 -114 -25 -30 -52 -63 -60 -72 -8 -9 -64 -77 -125
-152 -60 -74 -113 -135 -116 -135 -3 -1 -30 20 -60 45 -30 25 -63 53 -74 63
-11 9 -76 61 -145 116 -69 55 -138 112 -153 126 l-28 25 31 63 c42 82 57 143
58 227 1 269 -232 484 -505 467 l-61 -4 -17 73 c-9 40 -19 84 -21 97 -3 14
-28 133 -55 265 -28 133 -53 252 -55 266 -3 14 -6 30 -8 36 -3 6 81 29 217 59
122 26 328 71 457 100 129 28 238 50 241 49 4 -2 12 -32 19 -66z m-545 -960
c168 -56 280 -222 271 -401 -4 -75 -32 -163 -65 -206 l-19 -25 -29 25 c-16 13
-44 35 -62 48 -149 113 -197 158 -223 211 -24 48 -60 182 -74 275 -3 17 -9 43
-14 58 -10 31 -6 34 45 39 49 6 106 -2 170 -24z m1415 -432 c40 -47 59 -77 81
-136 49 -131 24 -265 -79 -409 -64 -91 -126 -146 -211 -189 -67 -33 -80 -36
-155 -35 -58 0 -98 7 -141 23 -62 24 -155 77 -155 88 0 6 123 158 208 257 10
11 71 85 137 165 66 80 122 147 125 150 3 3 32 38 64 78 66 81 62 81 126 8z"/>
<path d="M985 2210 c-129 -179 -130 -181 -148 -268 -9 -47 -16 -90 -15 -94 2
-4 39 14 83 40 77 46 84 54 208 222 116 159 141 200 120 200 -5 0 -32 18 -61
40 -29 22 -53 40 -55 40 -1 0 -60 -81 -132 -180z m164 81 c10 -7 -9 -40 -85
-144 -60 -83 -103 -133 -111 -130 -7 3 -13 9 -13 15 0 11 182 268 190 268 3 0
11 -4 19 -9z"/>
<path d="M1349 2046 c-109 -28 -179 -118 -180 -230 -2 -133 101 -239 231 -240
100 0 172 42 220 129 31 55 32 154 3 210 -55 106 -166 159 -274 131z m163 -87
c33 -24 63 -73 72 -118 6 -33 6 -33 -26 -27 -18 4 -52 9 -76 13 -23 3 -46 11
-50 17 -16 25 -40 141 -30 147 15 9 78 -10 110 -32z m-152 -89 c12 -47 23 -86
24 -87 1 -2 76 -14 165 -28 28 -4 23 -26 -16 -64 -64 -64 -147 -74 -223 -26
-101 64 -109 202 -17 286 37 34 36 35 67 -81z"/>
<path d="M1663 1203 c-48 -9 -76 -55 -127 -204 -48 -141 -48 -145 -33 -181 22
-51 79 -84 181 -104 27 -5 81 20 99 46 9 12 37 83 62 156 52 147 54 182 11
226 -38 37 -142 70 -193 61z m109 -81 c28 -13 49 -29 53 -42 5 -15 -9 -67 -40
-155 -54 -155 -64 -164 -142 -139 -82 27 -102 62 -73 129 5 11 23 62 41 113
43 126 62 136 161 94z"/>
<path d="M1638 880 c-24 -14 -12 -50 17 -50 29 0 39 25 19 45 -9 8 -16 15 -17
15 -1 0 -9 -5 -19 -10z"/>
</g>
</svg>
