<svg width="320" height="320" viewBox="0 0 320 320" fill="none" xmlns="http://www.w3.org/2000/svg">
<path d="M60.3484 47.6L60.3486 47.5996L60.3488 47.5993L60.3489 47.5991L60.3729 47.5499L60.3955 47.499C60.8935 46.3751 62.0047 44.9713 63.2977 43.6323C64.4645 42.424 65.5763 41.4741 66.0063 41.1227C66.035 41.1028 66.0725 41.0771 66.1184 41.0459C66.25 40.9565 66.4498 40.8229 66.7078 40.6571C67.225 40.3247 67.9686 39.8675 68.8584 39.3787C70.6779 38.3792 72.9397 37.3422 75.0563 36.8834L75.1157 36.8705L75.1751 36.8576L75.2348 36.8447L75.2946 36.8317L75.3545 36.8188L75.4146 36.8057L75.4748 36.7927L75.5352 36.7796L75.5957 36.7665L75.6564 36.7533L75.7172 36.7401L75.7781 36.7269L75.8392 36.7137L75.9004 36.7004L75.9618 36.6871L76.0233 36.6738L76.0849 36.6604L76.1467 36.647L76.2086 36.6336L76.2706 36.6202L76.3328 36.6067L76.3951 36.5932L76.4575 36.5797L76.52 36.5661L76.5827 36.5525L76.6455 36.5389L76.7084 36.5253L76.7715 36.5116L76.8347 36.4979L76.898 36.4842L76.9614 36.4704L77.0249 36.4567L77.0886 36.4429L77.1523 36.4291L77.2162 36.4152L77.2802 36.4013L77.3444 36.3874L77.4086 36.3735L77.4729 36.3596L77.5374 36.3456L77.602 36.3316L77.6666 36.3176L77.7314 36.3035L77.7963 36.2895L77.8613 36.2754L77.9264 36.2613L77.9916 36.2471L78.0569 36.233L78.1223 36.2188L78.1878 36.2046L78.2535 36.1904L78.3192 36.1761L78.385 36.1619L78.4509 36.1476L78.5169 36.1333L78.583 36.1189L78.6492 36.1046L78.7154 36.0902L78.7818 36.0758L78.8483 36.0614L78.9148 36.047L78.9815 36.0326L79.0482 36.0181L79.115 36.0036L79.1819 35.9891L79.2489 35.9746L79.316 35.9601L79.3831 35.9455L79.4503 35.9309L79.5177 35.9163L79.585 35.9017L79.6525 35.8871L79.72 35.8725L79.7877 35.8578L79.8554 35.8431L79.9231 35.8284L79.991 35.8137L80.0589 35.799L80.1269 35.7843L80.1949 35.7695L80.263 35.7548L80.3312 35.74L80.3995 35.7252L80.4678 35.7104L80.5362 35.6956L80.6046 35.6807L80.6731 35.6659L80.7417 35.651L80.8103 35.6361L80.879 35.6212L80.9478 35.6063L81.0166 35.5914L81.0854 35.5765L81.1543 35.5616L81.2233 35.5466L81.2923 35.5317L81.3614 35.5167L81.4305 35.5017L81.4997 35.4867L81.5689 35.4717L81.6382 35.4567L81.7075 35.4417L81.7769 35.4266L81.8463 35.4116L81.9157 35.3965L81.9852 35.3815L82.0547 35.3664L82.1243 35.3513L82.1939 35.3362L82.2636 35.3211L82.3333 35.306L82.403 35.2909L82.4727 35.2758L82.5425 35.2607L82.6124 35.2455L82.6822 35.2304L82.7521 35.2152L82.822 35.2001L82.892 35.1849L82.9619 35.1697L83.0319 35.1546L83.102 35.1394L83.172 35.1242L83.2421 35.109L83.3122 35.0938L83.3823 35.0786L83.4524 35.0634L83.5226 35.0482L83.5928 35.033L83.663 35.0178L83.7332 35.0026L83.8034 34.9874L83.8736 34.9721L83.9439 34.9569L84.0141 34.9417L84.0844 34.9264L84.1547 34.9112L84.225 34.896L84.2953 34.8807L84.3656 34.8655L84.4359 34.8502L84.5062 34.835L84.5765 34.8198L84.6468 34.8045L84.7172 34.7893L84.7875 34.774L84.8578 34.7588L84.9281 34.7435L84.9985 34.7283L85.0688 34.7131L85.1391 34.6978L85.2094 34.6826L85.2797 34.6673L85.35 34.6521L85.4202 34.6369L85.4905 34.6216L85.5608 34.6064L85.631 34.5912L85.7013 34.576L85.7715 34.5607L85.8417 34.5455L85.9119 34.5303L85.982 34.5151L86.0522 34.4999L86.1223 34.4847L86.1924 34.4695L86.2625 34.4543L86.3326 34.4391L86.4026 34.4239L86.4727 34.4088L86.5426 34.3936L86.6126 34.3784L86.6826 34.3633L86.7525 34.3481L86.8223 34.333L86.8922 34.3178L86.962 34.3027L87.0318 34.2875L87.1015 34.2724L87.1713 34.2573L87.2409 34.2422L87.3106 34.2271L87.3802 34.212L87.4497 34.197L87.5193 34.1819L87.5888 34.1668L87.6582 34.1518L87.7276 34.1367L87.7969 34.1217L87.8662 34.1067L87.9355 34.0917L88.0047 34.0767L88.0739 34.0617L88.143 34.0467L88.212 34.0317L88.2811 34.0168L88.35 34.0018L88.4189 33.9869L88.4878 33.9719L88.5566 33.957L88.6253 33.9421L88.694 33.9273L88.7626 33.9124L88.8311 33.8975L88.8996 33.8827L88.9681 33.8678L89.0364 33.853L89.1047 33.8382L89.173 33.8234L89.2412 33.8086L89.3093 33.7939L89.3773 33.7791L89.4453 33.7644L89.5132 33.7497L89.581 33.735L89.6487 33.7203L89.7164 33.7056L89.784 33.691L89.8515 33.6763L89.919 33.6617L89.9864 33.6471L90.0537 33.6325L90.1209 33.618L90.188 33.6034L90.2551 33.5889L90.322 33.5744L90.3889 33.5599L90.4557 33.5454L90.5224 33.5309L90.589 33.5165L90.6556 33.5021L90.722 33.4876L90.7884 33.4733L90.8546 33.4589L90.9208 33.4446L90.9869 33.4302L91.0528 33.4159L91.1187 33.4017L91.1845 33.3874L91.2502 33.3732L91.3158 33.3589L91.3813 33.3447L91.4467 33.3306L91.512 33.3164L91.5771 33.3023L91.6422 33.2882L91.7072 33.2741L91.7721 33.26L91.8368 33.246L91.9015 33.232L91.966 33.218L92.0305 33.204L92.0948 33.1901L92.159 33.1762L92.2231 33.1623L92.2871 33.1484L92.3509 33.1346L92.4147 33.1207L92.4783 33.1069L92.5418 33.0932L92.6052 33.0794L92.6685 33.0657L92.7316 33.052L92.7946 33.0384L92.8575 33.0247L92.9203 33.0111L92.983 32.9976L93.0455 32.984L93.1079 32.9705L93.1702 32.957L93.2323 32.9435L93.2943 32.9301L93.3562 32.9167L93.4179 32.9033L93.4795 32.8899L93.541 32.8766L93.6023 32.8633L93.6635 32.85L93.7245 32.8368L93.7854 32.8236L93.8462 32.8104L93.9069 32.7973L93.9673 32.7842L94.0277 32.7711L94.0879 32.7581L94.1479 32.745L94.2078 32.732L94.2676 32.7191L94.3272 32.7062L94.3867 32.6933L94.446 32.6804L94.5051 32.6676L94.5641 32.6548L94.623 32.6421L94.6817 32.6293L94.7402 32.6167L94.7986 32.604L94.8568 32.5914L94.9148 32.5788L94.9727 32.5662L95.0305 32.5537L95.088 32.5413L95.1455 32.5288L95.2027 32.5164L95.2598 32.504L95.3167 32.4917L95.3734 32.4794L95.43 32.4671L95.4864 32.4549L95.5426 32.4427L95.5987 32.4306L95.6546 32.4184L95.7103 32.4064L95.7658 32.3943L95.8212 32.3823L95.8764 32.3704L95.9314 32.3584L95.9862 32.3466L96.0408 32.3347L96.0953 32.3229L96.1496 32.3111L96.2037 32.2994L96.2576 32.2877L96.3113 32.2761L96.3649 32.2645L96.4182 32.2529L96.4714 32.2414L96.5243 32.2299L96.5771 32.2185L96.6297 32.2071L96.6821 32.1957L96.7343 32.1844L96.7863 32.1731L96.8381 32.1619L96.8897 32.1507L96.9411 32.1396L96.9924 32.1285L97.0434 32.1174L97.0942 32.1064L97.1448 32.0954L97.1952 32.0845L97.2454 32.0736L97.2954 32.0628L97.3452 32.052L97.3948 32.0412L97.4441 32.0305L97.4933 32.0199L97.5422 32.0093L97.591 31.9987L97.6395 31.9882L97.6878 31.9777L97.7359 31.9673L97.7838 31.9569L97.8315 31.9466L97.8789 31.9363L97.9261 31.9261L97.9731 31.9159L98.0199 31.9057L98.0665 31.8956L98.1128 31.8856L98.1589 31.8756L98.2048 31.8657L98.2505 31.8558L98.2959 31.8459L98.3411 31.8361L98.3861 31.8264L98.4308 31.8167L98.4753 31.807L98.5196 31.7974L98.5637 31.7879L98.6075 31.7784L98.651 31.7689L98.6944 31.7595L98.7375 31.7502L98.7803 31.7409L98.823 31.7317L98.8653 31.7225L98.9075 31.7133L98.9494 31.7043L98.991 31.6952L99.0324 31.6863L99.0736 31.6773L99.1145 31.6685L99.1551 31.6597L99.1955 31.6509L99.2357 31.6422L99.2756 31.6335L99.3153 31.6249L99.3547 31.6164L99.3938 31.6079L99.4327 31.5995L99.4713 31.5911L99.5097 31.5828L99.5478 31.5745L99.5857 31.5663L99.6233 31.5582L99.6606 31.5501L99.6977 31.5421L99.7345 31.5341L99.771 31.5262L99.8073 31.5183L99.8433 31.5105L99.879 31.5027L99.9145 31.4951L99.9497 31.4874L99.9846 31.4799L100.019 31.4724L100.054 31.4649L100.088 31.4575L100.122 31.4502L100.155 31.4429L100.188 31.4357L100.221 31.4285L100.254 31.4214L100.287 31.4144L100.319 31.4074L100.351 31.4005L100.382 31.3937L100.413 31.3869L100.444 31.3802L100.475 31.3735L100.506 31.3669L100.536 31.3604L100.566 31.3539L100.595 31.3475L100.624 31.3412L100.653 31.3349L100.682 31.3287L100.71 31.3225L100.739 31.3164L100.766 31.3104L100.794 31.3045L100.821 31.2986L100.848 31.2927L100.874 31.287L100.901 31.2813L100.927 31.2756L100.952 31.2701L100.978 31.2646L101.003 31.2591L101.028 31.2538L101.052 31.2485L101.076 31.2432L101.1 31.2381L101.124 31.233L101.147 31.228L101.17 31.223L101.192 31.2181L101.214 31.2133L101.236 31.2085L101.258 31.2038L101.279 31.1992L101.3 31.1947L101.321 31.1902L101.341 31.1858L101.361 31.1815L101.381 31.1772L101.4 31.173L101.419 31.1689L101.438 31.1648L101.456 31.1608L101.474 31.1569L101.492 31.1531L101.51 31.1493L101.527 31.1456L101.543 31.142L101.56 31.1385L101.576 31.135L101.591 31.1316L101.607 31.1282L101.622 31.125L101.636 31.1218L101.651 31.1187L101.665 31.1157L101.678 31.1127L101.692 31.1098L101.705 31.107L101.717 31.1043L101.73 31.1016L101.741 31.099L101.753 31.0965L101.764 31.0941L101.775 31.0917L101.786 31.0895L101.796 31.0873L101.806 31.0851L101.815 31.0831L101.824 31.0811L101.833 31.0792L101.841 31.0774L101.849 31.0757L101.857 31.074L101.864 31.0724L101.871 31.0709L101.878 31.0695L101.884 31.0682L101.89 31.0669L101.895 31.0657L101.9 31.0646L101.905 31.0636L101.909 31.0627L101.913 31.0618L101.917 31.061L101.92 31.0603L101.923 31.0597L101.925 31.0592L101.927 31.0587L101.929 31.0584L101.93 31.0581L101.931 31.0579L101.932 31.0577C101.932 31.0577 101.932 31.0577 101.397 28.5882L101.932 31.0577L127.342 25.5498L127.454 25.5255L127.564 25.4926C130.828 24.5187 135.635 25.017 139.732 26.4903C143.703 27.9178 146.321 29.5828 149.184 32.1596C152.397 35.9549 153.777 38.0699 155.098 42.6569L167.954 101.968L176.776 142.666L177.899 147.846L178.117 148.854L178.909 149.514L229.034 191.331L241.566 201.785L241.622 201.832L241.676 201.873L241.676 201.873L241.678 201.874L241.68 201.876L241.686 201.88C241.697 201.889 241.717 201.904 241.745 201.926C241.801 201.97 241.891 202.042 242.012 202.14C242.252 202.337 242.614 202.641 243.07 203.047C243.982 203.862 245.266 205.085 246.711 206.686C249.609 209.9 253.103 214.581 255.57 220.492C258.028 226.382 259.468 233.489 258.293 241.642C257.117 249.796 253.299 259.19 244.941 269.607C236.617 279.982 228.151 285.426 220.247 287.916C212.329 290.411 204.742 290.016 198.074 288.333C191.387 286.646 185.675 283.674 181.616 281.099C179.593 279.816 177.998 278.643 176.918 277.799C176.379 277.377 175.969 277.038 175.7 276.81C175.565 276.696 175.466 276.61 175.403 276.554C175.388 276.541 175.374 276.529 175.363 276.519L175.337 276.496L175.327 276.486L175.325 276.485L175.324 276.484L175.278 276.442L175.227 276.4L167.193 269.716L151.125 256.349L151.098 256.326L151.07 256.304L149.207 258.655C151.07 256.304 151.07 256.304 151.07 256.304L151.069 256.303L151.067 256.301L151.058 256.294L151.022 256.266L150.88 256.153L150.324 255.712C149.837 255.325 149.122 254.758 148.214 254.035C146.397 252.589 143.803 250.523 140.698 248.04C134.488 243.073 126.234 236.442 118.055 229.781C114.273 226.7 110.775 223.996 107.6 221.563C107.036 221.131 106.483 220.708 105.941 220.294C103.42 218.366 101.139 216.621 99.0765 214.969C94.0178 210.918 90.6456 207.707 88.6994 204.368C86.6848 200.91 85.2193 196.392 83.6633 189.816C82.7532 185.971 81.8445 181.576 80.7768 176.412C80.0114 172.711 79.1643 168.614 78.1764 164.041C73.7323 143.469 68.6064 118.774 64.5905 99.2167C62.5828 89.4392 60.8529 80.948 59.6251 74.9013C59.0111 71.878 58.5227 69.4658 58.1878 67.8097C58.0203 66.9816 57.8912 66.3425 57.804 65.9105L57.7051 65.4201L57.6904 65.3474C57.6846 65.3037 57.6766 65.2433 57.6669 65.1675C57.6439 64.9882 57.6113 64.7237 57.574 64.3925C57.499 63.7286 57.406 62.8044 57.3334 61.7662C57.1827 59.6102 57.1434 57.2511 57.4168 55.6736C57.6733 54.194 58.366 52.2237 59.0711 50.4929C59.412 49.6562 59.735 48.9252 59.9723 48.4044C60.0907 48.1446 60.1871 47.9387 60.2528 47.8C60.2856 47.7306 60.3107 47.6782 60.327 47.6443L60.3448 47.6076L60.3484 47.6L60.3484 47.6Z" stroke="black" stroke-width="6"/>
<path d="M58.1191 81.4836L161.713 59.0283" stroke="black" stroke-width="6"/>
<path d="M172.318 277.893L238.735 197.863" stroke="black" stroke-width="6"/>
<path d="M80.5898 161.541C104.339 156.393 127.764 171.472 132.912 195.221C135.952 209.245 131.939 223.157 123.251 233.259" stroke="black" stroke-width="6"/>
<path d="M85.9062 130.343L88.4218 118.14L112.292 85.1895L120.47 91.1143L96.5914 124.078L85.9062 130.343Z" stroke="black" stroke-width="6"/>
<path d="M87.6426 116.217L98.7109 124.77" stroke="black" stroke-width="6"/>
<circle cx="140.639" cy="138.639" r="21" transform="rotate(9.52115 140.639 138.639)" stroke="black" stroke-width="6"/>
<path d="M135.137 118.248L140.573 139.034L161.481 142.541" stroke="black" stroke-width="6"/>
<rect x="164.025" y="199.837" width="26" height="42" rx="9" transform="rotate(19.7443 164.025 199.837)" stroke="black" stroke-width="6"/>
<circle cx="165.451" cy="234.348" r="1.5" transform="rotate(19.7443 165.451 234.348)" stroke="black" stroke-width="3"/>
</svg>
